<svg width="31" height="31" viewBox="0 0 31 31" fill="none" xmlns="http://www.w3.org/2000/svg">
<g clip-path="url(#clip0_195_21)">
<path d="M30.9039 0.675781H0.903931V30.6758H30.9039V0.675781Z" fill="#F7DF1E"/>
<path d="M21.0563 24.1138C21.6606 25.1005 22.4468 25.8258 23.8373 25.8258C25.0054 25.8258 25.7515 25.2419 25.7515 24.4353C25.7515 23.4686 24.9849 23.1262 23.6992 22.5638L22.9944 22.2615C20.9601 21.3948 19.6087 20.3091 19.6087 18.0138C19.6087 15.8996 21.2196 14.29 23.7373 14.29C25.5296 14.29 26.8182 14.9138 27.7468 16.5472L25.5515 17.9567C25.0682 17.09 24.5468 16.7486 23.7373 16.7486C22.9115 16.7486 22.3882 17.2724 22.3882 17.9567C22.3882 18.8024 22.912 19.1448 24.1216 19.6686L24.8263 19.9705C27.2215 20.9977 28.5739 22.0448 28.5739 24.3991C28.5739 26.9372 26.5801 28.3277 23.9025 28.3277C21.2844 28.3277 19.593 27.08 18.7654 25.4448L21.0563 24.1138ZM11.0977 24.3581C11.5406 25.1438 11.9435 25.8081 12.912 25.8081C13.8382 25.8081 14.4225 25.4458 14.4225 24.0367V14.451H17.2415V24.0748C17.2415 26.9938 15.5301 28.3224 13.032 28.3224C10.7749 28.3224 9.46774 27.1543 8.80298 25.7474L11.0977 24.3581Z" fill="black"/>
</g>
<defs>
<clipPath id="clip0_195_21">
<rect width="30" height="30" fill="white" transform="translate(0.903931 0.675781)"/>
</clipPath>
</defs>
</svg>
