<svg width="800" height="800" viewBox="0 0 800 800" fill="none" xmlns="http://www.w3.org/2000/svg">
<path d="M400 798.516C388.996 798.516 378.726 795.581 369.189 790.446L271.621 732.492C256.949 724.423 264.285 721.488 268.687 720.021C288.494 713.419 292.162 711.952 312.703 700.214C314.903 698.747 317.838 699.481 320.038 700.948L394.865 745.697C397.799 747.164 401.467 747.164 403.668 745.697L696.371 576.237C699.306 574.77 700.773 571.836 700.773 568.168V229.981C700.773 226.313 699.306 223.379 696.371 221.912L403.668 53.1855C400.734 51.7183 397.066 51.7183 394.865 53.1855L102.161 221.912C99.2271 223.379 97.7599 227.047 97.7599 229.981V568.168C97.7599 571.102 99.2271 574.77 102.161 576.237L182.123 622.453C225.405 644.461 252.548 618.785 252.548 593.11V259.325C252.548 254.923 256.216 250.522 261.351 250.522H298.764C303.166 250.522 307.567 254.19 307.567 259.325V593.11C307.567 651.063 276.023 684.809 221.003 684.809C204.131 684.809 190.926 684.809 153.513 666.469L76.4857 622.453C57.4123 611.449 45.6748 590.909 45.6748 568.901V230.715C45.6748 208.707 57.4123 188.167 76.4857 177.163L369.189 7.70272C387.529 -2.56757 412.471 -2.56757 430.811 7.70272L723.514 177.163C742.588 188.167 754.325 208.707 754.325 230.715V568.901C754.325 590.909 742.588 611.449 723.514 622.453L430.811 791.913C421.274 796.315 410.27 798.516 400 798.516ZM490.232 565.967C361.853 565.967 335.444 507.279 335.444 457.395C335.444 452.993 339.112 448.592 344.247 448.592H382.394C386.795 448.592 390.463 451.526 390.463 455.928C396.332 494.808 413.205 513.882 490.966 513.882C552.587 513.882 578.997 499.943 578.997 466.932C578.997 447.858 571.661 433.92 475.56 424.383C395.599 416.314 345.714 398.708 345.714 334.885C345.714 275.464 395.599 240.252 479.228 240.252C573.128 240.252 619.344 272.53 625.213 342.955C625.213 345.155 624.479 347.356 623.012 349.557C621.545 351.024 619.344 352.491 617.143 352.491H578.997C575.329 352.491 571.661 349.557 570.927 345.889C562.124 305.541 539.383 292.337 479.228 292.337C411.738 292.337 403.668 315.812 403.668 333.418C403.668 354.692 413.205 361.294 504.17 373.032C594.402 384.769 636.951 401.642 636.951 464.731C636.217 529.287 583.398 565.967 490.232 565.967Z" fill="#539E43"/>
</svg>
